<?xml version="1.0" encoding="UTF-8" standalone="no"?>
<!-- Created with Inkscape (http://www.inkscape.org/) -->

<svg
   xmlns:dc="http://purl.org/dc/elements/1.1/"
   xmlns:cc="http://creativecommons.org/ns#"
   xmlns:rdf="http://www.w3.org/1999/02/22-rdf-syntax-ns#"
   xmlns:svg="http://www.w3.org/2000/svg"
   xmlns="http://www.w3.org/2000/svg"
   xmlns:sodipodi="http://sodipodi.sourceforge.net/DTD/sodipodi-0.dtd"
   xmlns:inkscape="http://www.inkscape.org/namespaces/inkscape"
   version="1.1"
   id="svg10"
   xml:space="preserve"
   width="172.42892"
   height="157.6588"
   viewBox="0 0 172.42893 157.6588"
   sodipodi:docname="警徽-警政署官方圖檔加自行修色.svg"
   inkscape:version="0.92.1 r15371"><metadata
     id="metadata16"><rdf:RDF><cc:Work
         rdf:about=""><dc:format>image/svg+xml</dc:format><dc:type
           rdf:resource="http://purl.org/dc/dcmitype/StillImage" /><dc:title /></cc:Work></rdf:RDF></metadata><defs
     id="defs14"><clipPath
       clipPathUnits="userSpaceOnUse"
       id="clipPath26"><path
         d="M 0,841.89 H 595.28 V 0 H 0 Z"
         id="path24"
         inkscape:connector-curvature="0" /></clipPath></defs><sodipodi:namedview
     pagecolor="#ffffff"
     bordercolor="#666666"
     borderopacity="1"
     objecttolerance="10"
     gridtolerance="10"
     guidetolerance="10"
     inkscape:pageopacity="0"
     inkscape:pageshadow="2"
     inkscape:window-width="1920"
     inkscape:window-height="1027"
     id="namedview12"
     showgrid="false"
     fit-margin-top="0"
     fit-margin-left="0"
     fit-margin-right="0"
     fit-margin-bottom="0"
     inkscape:zoom="5.03"
     inkscape:cx="86.21494"
     inkscape:cy="74.3995"
     inkscape:window-x="-8"
     inkscape:window-y="-8"
     inkscape:window-maximized="1"
     inkscape:current-layer="g18" /><g
     id="g18"
     inkscape:groupmode="layer"
     inkscape:label="新警服初樣設計說明"
     transform="matrix(1.3333333,0,0,-1.3333333,-310.63839,904.93691)"><g
       id="g1412"><g
         id="g1262"><g
           id="g120"
           transform="translate(300.3633,586.9174)"
           style="fill:#ffdb00;fill-opacity:1"><path
             d="m 0,0 c -0.784,-0.336 -0.801,-0.343 -0.801,-0.343 -0.375,-0.158 -0.967,-0.325 -1.908,-0.37 -0.942,0.045 -1.534,0.212 -1.91,0.37 0,0 -0.016,0.007 -0.8,0.343 l -3.432,-10.123 c 0,0 1.03,-1.144 2.717,-1.973 1.54,-0.757 3.135,-0.823 3.403,-0.828 v -0.001 h 0.022 0.021 v 0 c 0.268,0.006 1.863,0.072 3.403,0.829 1.687,0.829 2.717,1.973 2.717,1.973 z"
             style="fill:#ffdb00;fill-opacity:1;fill-rule:nonzero;stroke:none"
             id="path122"
             inkscape:connector-curvature="0" /></g><g
           id="g124"
           transform="translate(300.2402,568.0883)"
           style="fill:#ffdb00;fill-opacity:1"><path
             d="M 0,0 C 0,0.96 0.267,2.401 0.267,2.401 -0.594,2.212 -0.688,2.19 -0.8,2.168 -1.211,2.086 -1.81,2.002 -2.588,2.009 -3.368,2.002 -3.966,2.086 -4.377,2.168 -4.488,2.19 -4.583,2.212 -5.443,2.401 c 0,0 0.266,-1.441 0.266,-2.401 0,-0.96 -0.044,-2.532 -0.044,-2.532 L -5.443,-4.19 c 0.153,0.038 0.384,0.093 0.666,0.152 0.583,0.122 0.905,0.19 1.336,0.22 0.291,0.019 0.632,0.021 0.8,0.021 v 0 h 0.053 0.052 v 0 c 0.167,0 0.509,-0.002 0.801,-0.021 0.43,-0.03 0.753,-0.098 1.335,-0.22 0.282,-0.059 0.512,-0.114 0.667,-0.152 L 0.044,-2.532 C 0.044,-2.532 0,-0.96 0,0"
             style="fill:#ffdb00;fill-opacity:1;fill-rule:nonzero;stroke:none"
             id="path126"
             inkscape:connector-curvature="0" /></g><g
           id="g128"
           transform="translate(306.3389,602.1488)"
           style="fill:#ffdb00;fill-opacity:1"><path
             d="m 0,0 c -0.435,1.894 -1.016,2.618 -1.927,4.606 -1.589,3.465 -2.386,5.206 -2.219,7.455 0.091,1.239 0.568,3.863 0.741,4.811 0.02,0.116 0.131,0.717 0.231,1.524 0.061,0.485 0.111,0.883 0.13,1.356 0.014,0.344 0.046,1.137 -0.098,1.897 -0.254,1.347 -1.001,2.261 -1.263,2.576 -1.568,1.875 -3.84,2.042 -4.31,2.067 -0.471,-0.025 -2.744,-0.192 -4.31,-2.067 -0.173,-0.206 -0.552,-0.67 -0.865,-1.343 -0.406,-0.094 -1.056,-0.305 -1.696,-0.826 -1.209,-0.985 -1.513,-2.366 -1.588,-2.779 0.208,0.142 0.702,0.432 1.361,0.407 0.869,-0.033 1.465,-0.593 1.763,-0.956 0.053,-0.146 0.113,-0.319 0.182,-0.535 0,0 0.196,-0.618 0.389,-1.457 0.15,-0.654 0.431,-2.335 0.194,-4.675 -0.102,-1.009 -0.84,-4.447 -2.219,-7.455 -0.912,-1.988 -1.493,-2.712 -1.927,-4.606 -0.11,-0.478 -0.389,-1.81 -0.359,-3.526 0.104,-5.744 2.917,-8.674 2.917,-8.674 2.16,-2.271 4.68,-3.089 6.195,-3.089 1.445,0 3.993,0.849 6.119,3.089 0,0 2.814,2.936 2.917,8.674 C 0.39,-1.81 0.109,-0.478 0,0"
             style="fill:#ffdb00;fill-opacity:1;fill-rule:nonzero;stroke:none"
             id="path130"
             inkscape:connector-curvature="0" /></g><g
           id="g132"
           transform="translate(300.9922,587.1239)"
           style="fill:#ffdb00;fill-opacity:1"><path
             d="m 0,0 c 0,0 1.145,0.543 1.974,1.201 0.829,0.658 1.544,1.401 1.544,1.401 0,0 1.916,-3.317 3.117,-4.689 1.2,-1.373 3.145,-2.574 3.145,-2.574 0,0 -0.086,-1.544 -2.202,-3.46 -2.116,-1.916 -4.06,-2.059 -4.06,-2.059 L 3.46,-10.208 Z"
             style="fill:#ffdb00;fill-opacity:1;fill-rule:nonzero;stroke:none"
             id="path134"
             inkscape:connector-curvature="0" /></g><g
           id="g136"
           transform="translate(304.9961,607.1693)"
           style="fill:#ffdb00;fill-opacity:1"><path
             d="m 0,0 c 2.896,1.412 4.529,3.17 5.404,4.318 1.762,2.31 2.67,5.054 3.088,6.319 0.405,1.224 0.746,2.572 1.659,4.661 0.161,0.367 0.578,1.305 1.086,2.26 0.851,1.594 3.127,5.862 7.55,8.607 0.284,0.176 -0.003,-0.014 3.116,1.515 2.609,1.278 5.047,2.521 9.923,5.005 -0.181,-1.535 -0.488,-2.771 -0.743,-3.632 -0.54,-1.825 -1.013,-3.355 -2.345,-4.69 -0.386,-0.387 -0.754,-0.639 -1.487,-1.144 -2.026,-1.393 -3.226,-1.747 -5.977,-3.174 -1.334,-0.691 -2,-1.037 -2.401,-1.315 -3.08,-2.133 -4.474,-5.342 -5.69,-8.235 C 12.392,8.615 12.676,8.803 11.952,7.206 11.314,5.797 10.208,3.406 7.978,1.029 5.807,-1.284 3.454,-2.642 1.716,-3.432 Z"
             style="fill:#ffdb00;fill-opacity:1;fill-rule:nonzero;stroke:none"
             id="path138"
             inkscape:connector-curvature="0" /></g><g
           id="g140"
           transform="translate(319.5791,619.1791)"
           style="fill:#ffdb00;fill-opacity:1"><path
             d="m 0,0 c 0,0 2.631,4.861 4.433,6.034 1.801,1.172 5.204,2.459 6.719,3.431 1.516,0.973 2.717,1.773 2.717,1.773 C 13.773,10.417 13.565,9.291 13.083,8.025 12.825,7.35 12.227,5.821 10.952,4.347 8.73,1.776 5.849,0.99 4.318,0.572 2.529,0.083 0.996,-0.002 0,0"
             style="fill:#ffdb00;fill-opacity:1;fill-rule:nonzero;stroke:none"
             id="path142"
             inkscape:connector-curvature="0" /></g><g
           id="g144"
           transform="translate(317.2344,613.2885)"
           style="fill:#ffdb00;fill-opacity:1"><path
             d="m 0,0 c 0,0 0.658,1.373 1.087,2.66 0.429,1.286 0.973,2.602 0.973,2.602 0,0 2.258,-0.372 5.089,0.571 2.831,0.944 4.832,2.374 4.832,2.374 0,0 -0.054,-1.454 -1.002,-3.152 C 10.063,3.414 8.867,2.529 8.007,1.916 4.624,-0.496 1.252,-0.277 0.772,-0.171 0.747,-0.166 0,0 0,0"
             style="fill:#ffdb00;fill-opacity:1;fill-rule:nonzero;stroke:none"
             id="path146"
             inkscape:connector-curvature="0" /></g><g
           id="g148"
           transform="translate(313.7744,608.1415)"
           style="fill:#ffdb00;fill-opacity:1"><path
             d="m 0,0 c 0,0 1.487,1.887 2.059,2.831 0.572,0.943 1.058,1.744 1.058,1.744 1.659,-0.457 2.93,-0.379 3.775,-0.228 0,0 0.951,0.169 4.432,1.744 C 11.334,5.445 11.262,4.163 10.495,2.859 9.557,1.264 8.145,0.601 7.292,0.2 5.088,-0.836 3.065,-0.632 2.288,-0.543 1.324,-0.434 0.542,-0.199 0,0"
             style="fill:#ffdb00;fill-opacity:1;fill-rule:nonzero;stroke:none"
             id="path150"
             inkscape:connector-curvature="0" /></g><g
           id="g152"
           transform="translate(309.3428,604.3954)"
           style="fill:#ffdb00;fill-opacity:1"><path
             d="m 0,0 c 0,0 1.344,0.887 2.401,1.773 1.059,0.887 1.516,1.401 1.516,1.401 0,0 2.002,-0.772 3.46,-0.743 1.459,0.028 2.975,0.343 3.603,0.543 0.629,0.2 1.258,0.429 1.258,0.429 C 12.018,2.805 11.571,1.841 10.666,0.972 9.477,-0.169 8.174,-0.498 6.977,-0.801 6.026,-1.041 4.356,-1.442 2.315,-0.943 1.304,-0.696 0.52,-0.306 0,0"
             style="fill:#ffdb00;fill-opacity:1;fill-rule:nonzero;stroke:none"
             id="path154"
             inkscape:connector-curvature="0" /></g><g
           id="g156"
           transform="translate(306.8262,603.1088)"
           style="fill:#ffdb00;fill-opacity:1"><path
             d="m 0,0 1.83,0.858 c 0,0 1.973,-1.258 4.175,-1.316 2.202,-0.057 2.287,0.029 3.117,0.172 0.829,0.143 1.973,0.477 1.973,0.477 -0.137,-0.436 -0.38,-1.056 -0.829,-1.707 C 8.843,-3.575 6.595,-4.141 5.891,-4.318 5.293,-4.468 4.238,-4.723 2.945,-4.518 1.953,-4.361 0.543,-3.889 0.543,-3.889 0.575,-3.293 0.562,-2.552 0.429,-1.716 0.323,-1.054 0.164,-0.478 0,0"
             style="fill:#ffdb00;fill-opacity:1;fill-rule:nonzero;stroke:none"
             id="path158"
             inkscape:connector-curvature="0" /></g><g
           id="g160"
           transform="translate(337.5371,640.454)"
           style="fill:#ffdb00;fill-opacity:1"><path
             d="m 0,0 c 0,0 6.463,3.775 9.837,7.092 3.374,3.317 7.892,9.15 7.892,9.15 C 17.509,13.653 16.978,11.59 16.528,10.18 14.791,4.73 11.778,1.209 10.123,-0.686 8.428,-2.627 7.035,-3.784 6.005,-4.632 2.498,-7.519 0.648,-7.973 -0.4,-8.121 c -0.823,-0.116 -1.52,-0.097 -2.001,-0.057 0.662,1.089 1.454,2.668 1.944,4.69 C -0.137,-2.166 -0.022,-0.975 0,0"
             style="fill:#ffdb00;fill-opacity:1;fill-rule:nonzero;stroke:none"
             id="path162"
             inkscape:connector-curvature="0" /></g><g
           id="g164"
           transform="translate(331.6328,623.683)"
           style="fill:#ffdb00;fill-opacity:1"><path
             d="m 0,0 c 0,0 1.329,1.93 1.93,3.946 0.6,2.016 0.729,3.56 0.729,3.56 l 0.3,0.387 c 0,0 1.931,-0.344 4.075,0.514 2.145,0.858 3.904,1.93 5.747,3.474 1.845,1.544 3.346,3.432 3.346,3.432 0,0 1.072,-5.533 -1.716,-8.665 C 12.854,4.9 11.499,3.673 9.992,2.722 8.454,1.75 7.043,1.253 5.962,0.858 4.105,0.179 3.085,0.041 2.745,0 1.623,-0.135 0.673,-0.08 0,0"
             style="fill:#ffdb00;fill-opacity:1;fill-rule:nonzero;stroke:none"
             id="path166"
             inkscape:connector-curvature="0" /></g><g
           id="g168"
           transform="translate(328.3301,617.2064)"
           style="fill:#ffdb00;fill-opacity:1"><path
             d="m 0,0 c 0.871,1.107 1.195,2.068 1.329,2.745 0.083,0.419 0.258,2.102 0.258,2.102 l 1.2,1.115 c 0,0 1.888,-0.986 5.877,0.429 3.989,1.415 4.976,2.187 5.705,2.616 0.729,0.429 1.587,1.33 1.587,1.33 C 15.688,7.836 14.793,6.177 14.197,5.275 10.389,-0.484 2.279,-0.204 1.63,-0.172 0.944,-0.138 0.38,-0.062 0,0"
             style="fill:#ffdb00;fill-opacity:1;fill-rule:nonzero;stroke:none"
             id="path170"
             inkscape:connector-curvature="0" /></g><g
           id="g172"
           transform="translate(325.7988,614.7611)"
           style="fill:#ffdb00;fill-opacity:1"><path
             d="M 0,0 C 0,0 0.687,0.343 1.115,0.772 1.544,1.201 2.188,1.888 2.188,1.888 4.215,1.537 5.896,1.62 7.034,1.759 8.854,1.981 10.235,2.465 11.023,2.745 11.945,3.073 12.7,3.416 13.254,3.689 13.085,2.743 12.617,0.891 11.152,-0.858 9.783,-2.491 8.241,-3.202 7.249,-3.646 3.761,-5.207 0.416,-4.852 -1.244,-4.546 -0.838,-4.008 -0.184,-2.976 0,-1.544 0.076,-0.952 0.054,-0.426 0,0"
             style="fill:#ffdb00;fill-opacity:1;fill-rule:nonzero;stroke:none"
             id="path174"
             inkscape:connector-curvature="0" /></g><g
           id="g176"
           transform="translate(320.7666,605.182)"
           style="fill:#ffdb00;fill-opacity:1"><path
             d="M 0,0 C 0.675,0.587 1,1.16 1.172,1.587 1.239,1.755 1.361,2.178 1.601,3.017 1.666,3.049 1.759,3.098 1.869,3.162 2,3.237 2.318,3.429 2.702,3.76 2.773,3.822 2.955,3.997 3.316,4.346 5.235,3.959 6.797,4.013 7.849,4.132 c 2.302,0.26 4.358,1.078 5.419,1.501 0.03,0.012 0.054,0.022 0.071,0.029 C 13.219,5.039 12.966,4.131 12.381,3.188 10.522,0.189 6.989,-0.42 5.947,-0.601 3.341,-1.052 1.176,-0.443 0,0"
             style="fill:#ffdb00;fill-opacity:1;fill-rule:nonzero;stroke:none"
             id="path178"
             inkscape:connector-curvature="0" /></g><g
           id="g180"
           transform="translate(317.4062,600.9071)"
           style="fill:#ffdb00;fill-opacity:1"><path
             d="m 0,0 c 0,0 0.743,0.972 0.943,1.515 0.201,0.544 0.401,1.287 0.401,1.287 0,0 0.372,0.172 0.801,0.458 0.428,0.285 0.743,0.543 0.743,0.543 1.086,-0.432 2.617,-0.876 4.461,-0.915 0.965,-0.02 2.08,-0.044 3.375,0.4 0,0 0.14,0.049 1.915,0.744 C 12.443,3.352 11.965,2.048 10.78,0.886 9.53,-0.34 8.179,-0.734 7.263,-1.001 6.376,-1.26 4.545,-1.768 2.373,-1.144 1.306,-0.837 0.506,-0.357 0,0"
             style="fill:#ffdb00;fill-opacity:1;fill-rule:nonzero;stroke:none"
             id="path182"
             inkscape:connector-curvature="0" /></g><g
           id="g184"
           transform="translate(311.373,597.8759)"
           style="fill:#ffdb00;fill-opacity:1"><path
             d="m 0,0 c 0,0 1.601,0.028 3.06,0.801 1.458,0.772 2.459,1.715 2.459,1.715 0,0 1.601,-1.172 3.231,-1.43 1.63,-0.257 4.117,0.058 4.117,0.058 0,0 -0.869,-1.852 -3.029,-2.962 C 8.48,-2.515 7.278,-2.591 6.434,-2.631 5.47,-2.677 3.146,-2.788 1.2,-1.258 0.633,-0.812 0.245,-0.342 0,0"
             style="fill:#ffdb00;fill-opacity:1;fill-rule:nonzero;stroke:none"
             id="path186"
             inkscape:connector-curvature="0" /></g><g
           id="g188"
           transform="translate(307.4268,598.3334)"
           style="fill:#ffdb00;fill-opacity:1"><path
             d="M 0,0 C 0,0 -0.114,-1.544 -0.258,-2.631 -0.327,-3.16 -0.4,-3.79 -0.658,-4.575 -0.67,-4.612 -0.68,-4.642 -0.687,-4.661 c 0.342,-0.303 0.853,-0.704 1.534,-1.069 1.724,-0.922 3.324,-0.955 4.014,-0.961 0,0 2.656,-0.024 4.976,1.372 0.794,0.478 1.515,1.115 1.515,1.115 0.204,0.181 0.369,0.34 0.486,0.458 C 10.465,-3.907 9.34,-3.808 8.578,-3.689 7.439,-3.511 6.036,-3.293 4.689,-2.259 3.897,-1.651 3.402,-0.974 3.116,-0.515 2.543,-0.487 1.898,-0.419 1.201,-0.286 0.77,-0.204 0.368,-0.105 0,0"
             style="fill:#ffdb00;fill-opacity:1;fill-rule:nonzero;stroke:none"
             id="path190"
             inkscape:connector-curvature="0" /></g><g
           id="g192"
           transform="translate(342.1836,621.0238)"
           style="fill:#ffdb00;fill-opacity:1"><path
             d="m 0,0 c 0,0 0.901,0.9 1.588,2.316 0.685,1.415 1.115,3.174 1.115,3.174 0,0 0.558,-1.544 0.729,-4.332 0.172,-2.788 0.214,-8.407 0.214,-8.407 0,0 -1.887,-2.788 -3.088,-5.19 -1.201,-2.402 -2.959,-5.49 -2.959,-5.49 l -0.472,1.458 c 0.903,2.712 1.513,5.067 1.93,6.906 0.661,2.914 0.991,4.412 0.986,6.391 0,0 0,0.096 -0.043,3.174"
             style="fill:#ffdb00;fill-opacity:1;fill-rule:nonzero;stroke:none"
             id="path194"
             inkscape:connector-curvature="0" /></g><g
           id="g196"
           transform="translate(339.9395,601.9076)"
           style="fill:#ffdb00;fill-opacity:1"><path
             d="m 0,0 c 0,0 5.776,11.038 8.75,14.927 2.974,3.889 6.349,6.577 8.063,8.064 1.716,1.487 2.975,2.116 3.661,2.516 0.686,0.4 1.887,0.972 1.887,0.972 -0.525,-0.419 -1.21,-0.985 -1.987,-1.68 0,0 -2.048,-1.829 -3.961,-3.982 C 10.826,14.529 7.492,6.978 7.492,6.978 6.546,4.836 5.915,3.006 4.976,0.286 c 0,0 -0.509,-1.472 -2.517,-7.778 L 0,-8.979 c 0.306,1.424 0.553,3.277 0.457,5.433 C 0.398,-2.207 0.219,-1.015 0,0"
             style="fill:#ffdb00;fill-opacity:1;fill-rule:nonzero;stroke:none"
             id="path198"
             inkscape:connector-curvature="0" /></g><g
           id="g200"
           transform="translate(346.9453,594.2587)"
           style="fill:#ffdb00;fill-opacity:1"><path
             d="m 0,0 4.117,-3.475 c 0,0 -0.257,-3.345 -1.758,-8.064 -1.502,-4.718 -3.431,-7.591 -3.431,-7.591 0,0 0.857,4.675 1.244,9.565 C 0.558,-4.675 0,0 0,0"
             style="fill:#ffdb00;fill-opacity:1;fill-rule:nonzero;stroke:none"
             id="path202"
             inkscape:connector-curvature="0" /></g><g
           id="g204"
           transform="translate(323.2256,574.6136)"
           style="fill:#ffdb00;fill-opacity:1"><path
             d="m 0,0 c 3.366,5.284 6.838,9.055 9.437,11.538 3.598,3.44 6.642,5.481 7.505,6.048 2.141,1.408 4.072,2.441 5.577,3.174 0.061,-0.093 0.299,-0.245 0.299,-0.515 0,-0.343 0.301,-5.576 0.301,-5.576 0,0 -1.565,-0.986 -3.432,-2.3 C 18.36,11.435 16.56,10.104 14.455,8.106 13.082,6.805 12.106,5.708 11.495,5.019 10.772,4.203 9.846,3.063 8.021,0.815 6.725,0.865 5.221,0.837 3.56,0.643 2.241,0.49 1.049,0.258 0,0"
             style="fill:#ffdb00;fill-opacity:1;fill-rule:nonzero;stroke:none"
             id="path206"
             inkscape:connector-curvature="0" /></g><g
           id="g208"
           transform="translate(313.5312,571.2679)"
           style="fill:#ffdb00;fill-opacity:1"><path
             d="m 0,0 c 0,0 0.644,1.029 1.072,1.758 0.43,0.73 0.773,1.545 0.773,1.545 4.59,2.277 7.33,5.157 8.75,6.905 0.623,0.768 2.329,2.895 3.646,5.877 1.63,3.688 2.518,6.959 2.53,6.863 0.141,-1.118 0.424,-4.903 0.3,-5.963 -0.041,-0.643 -0.129,-1.381 -0.3,-2.187 -0.157,-0.743 -0.354,-1.403 -0.557,-1.973 0,0 -2.573,-2.617 -4.161,-4.761 C 10.466,5.919 8.836,3.088 8.836,3.088 7.333,2.662 5.756,2.166 4.118,1.587 2.666,1.074 1.293,0.541 0,0"
             style="fill:#ffdb00;fill-opacity:1;fill-rule:nonzero;stroke:none"
             id="path210"
             inkscape:connector-curvature="0" /></g><g
           id="g212"
           transform="translate(305.7676,564.6625)"
           style="fill:#ffdb00;fill-opacity:1"><path
             d="m 0,0 c 1.234,0.4 2.954,1.143 4.547,2.616 1.16,1.073 1.223,1.581 2.359,2.531 1.137,0.95 2.183,1.37 5.19,2.359 3.461,1.139 5.191,1.708 6.049,1.888 3.518,0.738 6.898,0.666 8.792,0.514 C 28.01,9.822 29.168,9.522 29.168,9.522 28.097,9.379 26.652,9.146 24.964,8.75 23.259,8.35 21.825,8.014 20.031,7.249 17.962,6.367 16.459,5.36 15.699,4.847 14.168,3.811 14.046,3.507 12.696,2.659 11.061,1.63 9.606,1.05 8.836,0.772 7.272,0.207 4.444,-0.779 1.03,-0.214 0.592,-0.142 0.235,-0.06 0,0"
             style="fill:#ffdb00;fill-opacity:1;fill-rule:nonzero;stroke:none"
             id="path214"
             inkscape:connector-curvature="0" /></g><g
           id="g216"
           transform="translate(304.0098,565.1771)"
           style="fill:#ffdb00;fill-opacity:1"><path
             d="m 0,0 c -0.094,0.804 -0.143,1.766 -0.072,2.845 0.051,0.791 0.158,1.506 0.286,2.131 3.53,0.747 5.762,2.119 7.077,3.345 3.132,2.917 5.062,6.22 5.062,6.22 -0.1,-0.591 -0.268,-1.426 -0.558,-2.402 C 11.439,10.939 10.417,7.894 7.849,4.761 7.623,4.485 6.499,3.129 4.718,1.716 4.387,1.453 2.254,-0.215 0.857,-0.086 0.771,-0.078 -0.058,0.006 -0.058,0.006 -0.058,0.006 -0.04,0.004 0,0"
             style="fill:#ffdb00;fill-opacity:1;fill-rule:nonzero;stroke:none"
             id="path218"
             inkscape:connector-curvature="0" /></g><g
           id="g220"
           transform="translate(304.1377,564.5336)"
           style="fill:#ffdb00;fill-opacity:1"><path
             d="m 0,0 c 0,0 1.587,-0.3 3.303,-1.544 1.716,-1.244 2.359,-1.544 2.359,-1.544 0,0 0.046,-0.031 0.129,-0.086 -1.102,-0.3 -2.202,-0.6 -3.303,-0.901 C 2.067,-3.488 1.61,-2.886 1.115,-2.273 0.79,-1.87 0.465,-1.484 0.144,-1.115 0.096,-0.743 0.048,-0.372 0,0"
             style="fill:#ffdb00;fill-opacity:1;fill-rule:nonzero;stroke:none"
             id="path222"
             inkscape:connector-curvature="0" /></g><g
           id="g224"
           transform="translate(300.8779,569.2089)"
           style="fill:#ffdb00;fill-opacity:1"><path
             d="m 0,0 2.659,1.587 c 0,0 -0.343,-2.273 -0.343,-3.732 0,-1.458 0.343,-3.903 0.343,-3.903 L 0,-4.461 Z"
             style="fill:#ffdb00;fill-opacity:1;fill-rule:nonzero;stroke:none"
             id="path226"
             inkscape:connector-curvature="0" /></g><g
           id="g228"
           transform="translate(330.7314,585.2079)"
           style="fill:#ffdb00;fill-opacity:1"><path
             d="m 0,0 c 0.229,0.807 0.334,1.47 0.386,1.93 0.08,0.696 0.131,1.712 0.132,1.716 0.533,0.55 1.288,1.408 2.013,2.574 0.292,0.469 0.974,1.622 2.102,5.147 0.81,2.533 1.216,3.8 1.458,5.362 0,0 0.128,0.821 0.429,5.447 0,0 1.93,-2.831 2.273,-7.764 C 9.137,9.479 8.235,6.992 8.235,6.992 6.901,6.083 5.862,5.265 5.147,4.675 4.354,4.021 3.721,3.443 2.488,2.316 1.439,1.358 0.586,0.556 0,0"
             style="fill:#ffdb00;fill-opacity:1;fill-rule:nonzero;stroke:none"
             id="path230"
             inkscape:connector-curvature="0" /></g><g
           id="g232"
           transform="translate(335.8789,641.369)"
           style="fill:#ffdb00;fill-opacity:1"><path
             d="m 0,0 c 0,0 -1.087,2.86 -1.087,4.976 0,2.116 1.544,4.918 1.544,4.918 0,0 1.029,-1.487 1.315,-3.946 C 2.059,3.489 0.629,0 0.629,0 0.629,0 0.621,-0.008 0.386,-0.271 0.464,4.322 0.472,4.812 0.362,5.319 0.349,5.381 0.149,4.149 0.129,2.903 0.099,1.155 0.328,-0.221 0.172,-0.25 0.142,-0.255 0.092,-0.215 0,0"
             style="fill:#ffdb00;fill-opacity:1;fill-rule:nonzero;stroke:none"
             id="path234"
             inkscape:connector-curvature="0" /></g><g
           id="g236"
           transform="translate(335.665,641.2264)"
           style="fill:#ffdb00;fill-opacity:1"><path
             d="m 0,0 c 0,0 -2.436,1.703 -4.42,2.141 -1.984,0.437 -4.96,-0.562 -4.96,-0.562 0,0 1.162,-1.361 3.403,-2.162 2.242,-0.801 5.835,-0.061 5.835,-0.061 0,0 0.01,0.006 0.31,0.193 C -4.156,0.419 -4.617,0.513 -5.068,0.73 -5.124,0.756 -3.924,0.705 -2.75,0.469 -1.104,0.138 0.134,-0.382 0.196,-0.228 0.208,-0.198 0.182,-0.138 0,0"
             style="fill:#ffdb00;fill-opacity:1;fill-rule:nonzero;stroke:none"
             id="path238"
             inkscape:connector-curvature="0" /></g><g
           id="g240"
           transform="translate(333.1445,645.5585)"
           style="fill:#ffdb00;fill-opacity:1"><path
             d="M 0,0 C -0.29,0.303 -0.669,0.732 -1.062,1.287 -1.581,2.019 -2.358,3.301 -2.82,5.104 -3.387,7.312 -3.16,9.055 -2.906,9.565 -2.912,9.557 -2.915,9.554 -2.917,9.554 c -0.013,0.007 0.112,0.307 0.375,0.901 0.251,-0.207 0.612,-0.53 0.998,-0.968 1.298,-1.474 1.777,-3.014 2.091,-4.061 0,0 0.401,-1.339 0.525,-3.142 C 1.131,1.43 1.073,1.038 1.019,0.783 c 0,0 -0.026,-0.12 -0.28,-1.04 0,0 -1.461,5.447 -1.749,5.962 C -1.092,5.851 -1.144,5.909 -1.171,5.899 -1.259,5.87 -1.071,5.117 -1.01,4.868 -0.418,2.48 0.429,0.064 0.558,-0.322 0.57,-0.361 0.451,-0.341 0.289,-0.214 0.192,-0.143 0.097,-0.072 0,0"
             style="fill:#ffdb00;fill-opacity:1;fill-rule:nonzero;stroke:none"
             id="path242"
             inkscape:connector-curvature="0" /></g><g
           id="g244"
           transform="translate(332.4902,644.1644)"
           style="fill:#ffdb00;fill-opacity:1"><path
             d="m 0,0 c -0.806,-0.196 -2.376,-0.455 -4.203,0.064 -2.379,0.676 -3.676,2.338 -3.989,2.617 -0.386,0.343 -0.386,0.6 -0.386,0.6 0,0 2.616,0.558 4.117,0.344 C -2.96,3.41 -1.587,2.596 -0.601,1.802 0.386,1.008 0.986,0.45 0.986,0.45 0.266,0.613 -0.312,0.759 -0.687,0.858 -1.6,1.098 -2.063,1.248 -3.088,1.501 -3.745,1.664 -4.648,1.885 -4.676,1.802 -4.687,1.769 -4.548,1.693 -4.418,1.63 -4.17,1.553 -3.798,1.44 -3.346,1.308 -1.993,0.915 -1.316,0.718 -0.601,0.579 0.362,0.392 0.942,0.368 0.943,0.257 0.945,0.154 0.439,0.062 0,0"
             style="fill:#ffdb00;fill-opacity:1;fill-rule:nonzero;stroke:none"
             id="path246"
             inkscape:connector-curvature="0" /></g><g
           id="g248"
           transform="translate(329.5732,650.4481)"
           style="fill:#ffdb00;fill-opacity:1"><path
             d="M 0,0 C 0,0 -1.822,0.515 -3.581,3.11 -5.34,5.705 -5.512,9.651 -5.512,9.651 -4.688,9.302 -2.738,8.344 -1.265,6.177 0.499,3.582 0.439,0.93 0.387,0.086 c -0.809,1.4 -1.394,2.536 -1.781,3.321 0,0 -1.076,2.185 -1.501,2.191 -10e-4,0 -10e-4,0 -0.003,-10e-4 C -3.022,5.521 0.215,0 0.215,0 Z"
             style="fill:#ffdb00;fill-opacity:1;fill-rule:nonzero;stroke:none"
             id="path250"
             inkscape:connector-curvature="0" /></g><g
           id="g252"
           transform="translate(330.4102,649.0541)"
           style="fill:#ffdb00;fill-opacity:1"><path
             d="m 0,0 c 0,0 -1.565,-0.943 -4.805,-0.729 -3.238,0.214 -5.533,2.209 -5.533,2.209 0,0 0.553,0.38 1.491,0.71 1.835,0.645 3.807,0.405 3.807,0.405 C -2.893,2.348 -1.307,1.339 -0.097,0.568 0.062,0.467 0.192,0.38 0.278,0.322 -0.426,0.476 -1.469,0.687 -2.745,0.879 -4.722,1.177 -6.514,1.316 -6.52,1.266 -6.524,1.228 -5.547,0.936 -2.531,0.601 -1.373,0.472 0.235,0.129 0.235,0.129 Z"
             style="fill:#ffdb00;fill-opacity:1;fill-rule:nonzero;stroke:none"
             id="path254"
             inkscape:connector-curvature="0" /></g><g
           id="g256"
           transform="translate(325.8848,652.2284)"
           style="fill:#ffdb00;fill-opacity:1"><path
             d="m 0,0 c -0.846,0.069 -2.88,0.349 -4.868,1.844 -2.193,1.648 -3.008,3.778 -3.268,4.569 0,0 2.861,0.142 5.32,-2.088 2.459,-2.231 2.973,-4.118 2.973,-4.118 0,0 -3.688,3.06 -4.146,3.403 -0.457,0.343 -0.572,0.086 -0.429,-0.028 0.536,-0.43 3.262,-2.615 3.66,-2.946 C -0.587,0.495 -0.343,0.29 -0.343,0.29 -0.208,0.176 -0.092,0.078 0,0"
             style="fill:#ffdb00;fill-opacity:1;fill-rule:nonzero;stroke:none"
             id="path258"
             inkscape:connector-curvature="0" /></g><g
           id="g260"
           transform="translate(294.2876,587.1239)"
           style="fill:#ffdb00;fill-opacity:1"><path
             d="m 0,0 c 0,0 -1.144,0.543 -1.973,1.201 -0.829,0.658 -1.545,1.401 -1.545,1.401 0,0 -1.915,-3.317 -3.116,-4.689 -1.201,-1.373 -3.146,-2.574 -3.146,-2.574 0,0 0.086,-1.544 2.202,-3.46 2.116,-1.916 4.06,-2.059 4.06,-2.059 0,0 0.021,-0.01 0.058,-0.028 z"
             style="fill:#ffdb00;fill-opacity:1;fill-rule:nonzero;stroke:none"
             id="path262"
             inkscape:connector-curvature="0" /></g><g
           id="g264"
           transform="translate(290.2842,607.1693)"
           style="fill:#ffdb00;fill-opacity:1"><path
             d="m 0,0 c -2.897,1.412 -4.53,3.17 -5.405,4.318 -1.761,2.31 -2.669,5.054 -3.088,6.319 -0.405,1.224 -0.745,2.572 -1.658,4.661 -0.161,0.367 -0.578,1.305 -1.087,2.26 -0.85,1.594 -3.127,5.862 -7.549,8.607 -0.285,0.176 0.003,-0.014 -3.117,1.515 -2.608,1.278 -5.047,2.521 -9.923,5.005 0.182,-1.535 0.489,-2.771 0.744,-3.632 0.54,-1.825 1.012,-3.355 2.345,-4.69 0.386,-0.387 0.753,-0.639 1.487,-1.144 2.026,-1.393 3.226,-1.747 5.976,-3.174 1.334,-0.691 2.001,-1.037 2.402,-1.315 3.08,-2.133 4.474,-5.342 5.69,-8.235 0.791,-1.88 0.507,-1.692 1.23,-3.289 0.639,-1.409 1.745,-3.8 3.975,-6.177 2.171,-2.313 4.523,-3.671 6.262,-4.461 z"
             style="fill:#ffdb00;fill-opacity:1;fill-rule:nonzero;stroke:none"
             id="path266"
             inkscape:connector-curvature="0" /></g><g
           id="g268"
           transform="translate(275.7007,619.1791)"
           style="fill:#ffdb00;fill-opacity:1"><path
             d="m 0,0 c 0,0 -2.631,4.861 -4.433,6.034 -1.801,1.172 -5.204,2.459 -6.719,3.431 -1.516,0.973 -2.717,1.773 -2.717,1.773 0.096,-0.821 0.304,-1.947 0.786,-3.213 0.258,-0.675 0.856,-2.204 2.131,-3.678 C -8.73,1.776 -5.849,0.99 -4.318,0.572 -2.529,0.083 -0.996,-0.002 0,0"
             style="fill:#ffdb00;fill-opacity:1;fill-rule:nonzero;stroke:none"
             id="path270"
             inkscape:connector-curvature="0" /></g><g
           id="g272"
           transform="translate(278.0454,613.2885)"
           style="fill:#ffdb00;fill-opacity:1"><path
             d="m 0,0 c 0,0 -0.658,1.373 -1.087,2.66 -0.429,1.286 -0.972,2.602 -0.972,2.602 0,0 -2.259,-0.372 -5.09,0.571 -2.831,0.944 -4.832,2.374 -4.832,2.374 0,0 0.054,-1.454 1.002,-3.152 0.915,-1.641 2.112,-2.526 2.972,-3.139 3.383,-2.412 6.755,-2.193 7.235,-2.087 C -0.747,-0.166 0,0 0,0"
             style="fill:#ffdb00;fill-opacity:1;fill-rule:nonzero;stroke:none"
             id="path274"
             inkscape:connector-curvature="0" /></g><g
           id="g276"
           transform="translate(281.5054,608.1415)"
           style="fill:#ffdb00;fill-opacity:1"><path
             d="M 0,0 C 0,0 -1.487,1.887 -2.059,2.831 -2.631,3.774 -3.117,4.575 -3.117,4.575 -4.776,4.118 -6.046,4.196 -6.892,4.347 c 0,0 -0.95,0.169 -4.432,1.744 -0.009,-0.646 0.063,-1.928 0.829,-3.232 0.939,-1.595 2.35,-2.258 3.203,-2.659 2.205,-1.036 4.226,-0.832 5.004,-0.743 C -1.324,-0.434 -0.542,-0.199 0,0"
             style="fill:#ffdb00;fill-opacity:1;fill-rule:nonzero;stroke:none"
             id="path278"
             inkscape:connector-curvature="0" /></g><g
           id="g280"
           transform="translate(285.9375,604.3954)"
           style="fill:#ffdb00;fill-opacity:1"><path
             d="m 0,0 c 0,0 -1.344,0.887 -2.402,1.773 -1.058,0.887 -1.515,1.401 -1.515,1.401 0,0 -2.002,-0.772 -3.46,-0.743 -1.459,0.028 -2.975,0.343 -3.603,0.543 -0.629,0.2 -1.259,0.429 -1.259,0.429 0.221,-0.598 0.668,-1.562 1.573,-2.431 1.189,-1.141 2.492,-1.47 3.689,-1.773 0.951,-0.24 2.62,-0.641 4.661,-0.142 C -1.304,-0.696 -0.52,-0.306 0,0"
             style="fill:#ffdb00;fill-opacity:1;fill-rule:nonzero;stroke:none"
             id="path282"
             inkscape:connector-curvature="0" /></g><g
           id="g284"
           transform="translate(288.4541,603.1088)"
           style="fill:#ffdb00;fill-opacity:1"><path
             d="m 0,0 -1.83,0.858 c 0,0 -1.973,-1.258 -4.175,-1.316 -2.202,-0.057 -2.287,0.029 -3.117,0.172 -0.829,0.143 -1.973,0.477 -1.973,0.477 0.137,-0.436 0.38,-1.056 0.829,-1.707 1.423,-2.059 3.671,-2.625 4.375,-2.802 0.598,-0.15 1.653,-0.405 2.946,-0.2 0.991,0.157 2.402,0.629 2.402,0.629 -0.032,0.596 -0.02,1.337 0.114,2.173 C -0.323,-1.054 -0.164,-0.478 0,0"
             style="fill:#ffdb00;fill-opacity:1;fill-rule:nonzero;stroke:none"
             id="path286"
             inkscape:connector-curvature="0" /></g><g
           id="g288"
           transform="translate(257.7427,640.454)"
           style="fill:#ffdb00;fill-opacity:1"><path
             d="m 0,0 c 0,0 -6.462,3.775 -9.837,7.092 -3.374,3.317 -7.892,9.15 -7.892,9.15 0.221,-2.589 0.751,-4.652 1.201,-6.062 1.737,-5.45 4.75,-8.971 6.405,-10.866 1.696,-1.941 3.088,-3.098 4.118,-3.946 C -2.498,-7.519 -0.648,-7.973 0.4,-8.121 1.223,-8.237 1.92,-8.218 2.402,-8.178 1.739,-7.089 0.948,-5.51 0.458,-3.488 0.137,-2.166 0.023,-0.975 0,0"
             style="fill:#ffdb00;fill-opacity:1;fill-rule:nonzero;stroke:none"
             id="path290"
             inkscape:connector-curvature="0" /></g><g
           id="g292"
           transform="translate(263.6475,623.683)"
           style="fill:#ffdb00;fill-opacity:1"><path
             d="m 0,0 c 0,0 -1.33,1.93 -1.93,3.946 -0.6,2.016 -0.729,3.56 -0.729,3.56 l -0.3,0.387 c 0,0 -1.931,-0.344 -4.075,0.514 -2.145,0.858 -3.904,1.93 -5.748,3.474 -1.844,1.544 -3.345,3.432 -3.345,3.432 0,0 -1.073,-5.533 1.715,-8.665 C -12.855,4.9 -11.499,3.673 -9.993,2.722 -8.454,1.75 -7.043,1.253 -5.962,0.858 -4.106,0.179 -3.085,0.041 -2.745,0 -1.624,-0.135 -0.673,-0.08 0,0"
             style="fill:#ffdb00;fill-opacity:1;fill-rule:nonzero;stroke:none"
             id="path294"
             inkscape:connector-curvature="0" /></g><g
           id="g296"
           transform="translate(266.9502,617.2064)"
           style="fill:#ffdb00;fill-opacity:1"><path
             d="m 0,0 c -0.872,1.107 -1.196,2.068 -1.33,2.745 -0.082,0.419 -0.257,2.102 -0.257,2.102 l -1.201,1.115 c 0,0 -1.887,-0.986 -5.876,0.429 -3.989,1.415 -4.976,2.187 -5.705,2.616 -0.729,0.429 -1.587,1.33 -1.587,1.33 0.268,-2.501 1.163,-4.16 1.759,-5.062 3.808,-5.759 11.917,-5.479 12.567,-5.447 0.686,0.034 1.25,0.11 1.63,0.172"
             style="fill:#ffdb00;fill-opacity:1;fill-rule:nonzero;stroke:none"
             id="path298"
             inkscape:connector-curvature="0" /></g><g
           id="g300"
           transform="translate(269.481,614.7611)"
           style="fill:#ffdb00;fill-opacity:1"><path
             d="M 0,0 C 0,0 -0.686,0.343 -1.115,0.772 -1.544,1.201 -2.188,1.888 -2.188,1.888 -4.215,1.537 -5.897,1.62 -7.034,1.759 c -1.82,0.222 -3.201,0.706 -3.989,0.986 -0.922,0.328 -1.677,0.671 -2.231,0.944 0.17,-0.946 0.637,-2.798 2.102,-4.547 1.369,-1.633 2.911,-2.344 3.903,-2.788 3.489,-1.561 6.833,-1.206 8.493,-0.9 C 0.838,-4.008 0.184,-2.976 0,-1.544 -0.076,-0.952 -0.054,-0.426 0,0"
             style="fill:#ffdb00;fill-opacity:1;fill-rule:nonzero;stroke:none"
             id="path302"
             inkscape:connector-curvature="0" /></g><g
           id="g304"
           transform="translate(274.5137,605.182)"
           style="fill:#ffdb00;fill-opacity:1"><path
             d="M 0,0 C -0.675,0.587 -1,1.16 -1.172,1.587 -1.24,1.755 -1.361,2.178 -1.601,3.017 -1.666,3.049 -1.759,3.098 -1.869,3.162 -2,3.237 -2.318,3.429 -2.702,3.76 -2.774,3.822 -2.955,3.997 -3.317,4.346 -5.236,3.959 -6.797,4.013 -7.849,4.132 c -2.303,0.26 -4.358,1.078 -5.419,1.501 -0.03,0.012 -0.055,0.022 -0.071,0.029 0.12,-0.623 0.373,-1.531 0.957,-2.474 1.859,-2.999 5.392,-3.608 6.434,-3.789 C -3.341,-1.052 -1.177,-0.443 0,0"
             style="fill:#ffdb00;fill-opacity:1;fill-rule:nonzero;stroke:none"
             id="path306"
             inkscape:connector-curvature="0" /></g><g
           id="g308"
           transform="translate(277.874,600.9071)"
           style="fill:#ffdb00;fill-opacity:1"><path
             d="m 0,0 c 0,0 -0.744,0.972 -0.944,1.515 -0.2,0.544 -0.4,1.287 -0.4,1.287 0,0 -0.372,0.172 -0.801,0.458 -0.429,0.285 -0.743,0.543 -0.743,0.543 -1.087,-0.432 -2.617,-0.876 -4.461,-0.915 -0.966,-0.02 -2.08,-0.044 -3.375,0.4 0,0 -0.141,0.049 -1.915,0.744 0.196,-0.68 0.674,-1.984 1.858,-3.146 1.251,-1.226 2.602,-1.62 3.517,-1.887 0.888,-0.259 2.719,-0.767 4.89,-0.143 C -1.306,-0.837 -0.506,-0.357 0,0"
             style="fill:#ffdb00;fill-opacity:1;fill-rule:nonzero;stroke:none"
             id="path310"
             inkscape:connector-curvature="0" /></g><g
           id="g312"
           transform="translate(283.9072,597.8759)"
           style="fill:#ffdb00;fill-opacity:1"><path
             d="m 0,0 c 0,0 -1.601,0.028 -3.06,0.801 -1.458,0.772 -2.459,1.715 -2.459,1.715 0,0 -1.601,-1.172 -3.231,-1.43 -1.63,-0.257 -4.118,0.058 -4.118,0.058 0,0 0.869,-1.852 3.03,-2.962 1.357,-0.697 2.56,-0.773 3.404,-0.813 0.964,-0.046 3.288,-0.157 5.233,1.373 C -0.633,-0.812 -0.245,-0.342 0,0"
             style="fill:#ffdb00;fill-opacity:1;fill-rule:nonzero;stroke:none"
             id="path314"
             inkscape:connector-curvature="0" /></g><g
           id="g316"
           transform="translate(287.8535,598.3334)"
           style="fill:#ffdb00;fill-opacity:1"><path
             d="M 0,0 C 0,0 0.114,-1.544 0.257,-2.631 0.327,-3.16 0.4,-3.79 0.658,-4.575 0.669,-4.612 0.68,-4.642 0.687,-4.661 0.345,-4.964 -0.166,-5.365 -0.847,-5.73 c -1.724,-0.922 -3.324,-0.955 -4.014,-0.961 0,0 -2.656,-0.024 -4.976,1.372 -0.794,0.478 -1.515,1.115 -1.515,1.115 -0.204,0.181 -0.369,0.34 -0.486,0.458 1.373,-0.161 2.498,-0.062 3.259,0.057 1.139,0.178 2.543,0.396 3.89,1.43 0.792,0.608 1.287,1.285 1.572,1.744 0.574,0.028 1.219,0.096 1.916,0.229 C -0.77,-0.204 -0.369,-0.105 0,0"
             style="fill:#ffdb00;fill-opacity:1;fill-rule:nonzero;stroke:none"
             id="path318"
             inkscape:connector-curvature="0" /></g><g
           id="g320"
           transform="translate(253.0962,621.0238)"
           style="fill:#ffdb00;fill-opacity:1"><path
             d="m 0,0 c 0,0 -0.901,0.9 -1.587,2.316 -0.686,1.415 -1.116,3.174 -1.116,3.174 0,0 -0.557,-1.544 -0.729,-4.332 -0.171,-2.788 -0.214,-8.407 -0.214,-8.407 0,0 1.887,-2.788 3.088,-5.19 1.201,-2.402 2.96,-5.49 2.96,-5.49 l 0.472,1.458 c -0.904,2.712 -1.514,5.067 -1.931,6.906 -0.66,2.914 -0.99,4.412 -0.986,6.391 0,0 0,0.096 0.043,3.174"
             style="fill:#ffdb00;fill-opacity:1;fill-rule:nonzero;stroke:none"
             id="path322"
             inkscape:connector-curvature="0" /></g><g
           id="g324"
           transform="translate(255.3408,601.9076)"
           style="fill:#ffdb00;fill-opacity:1"><path
             d="m 0,0 c 0,0 -5.776,11.038 -8.75,14.927 -2.974,3.889 -6.349,6.577 -8.064,8.064 -1.716,1.487 -2.974,2.116 -3.66,2.516 -0.687,0.4 -1.888,0.972 -1.888,0.972 0.526,-0.419 1.21,-0.985 1.988,-1.68 0,0 2.048,-1.829 3.96,-3.982 5.588,-6.288 8.922,-13.839 8.922,-13.839 0.946,-2.142 1.577,-3.972 2.516,-6.692 0,0 0.509,-1.472 2.517,-7.778 L 0,-8.979 c -0.306,1.424 -0.553,3.277 -0.458,5.433 C -0.398,-2.207 -0.219,-1.015 0,0"
             style="fill:#ffdb00;fill-opacity:1;fill-rule:nonzero;stroke:none"
             id="path326"
             inkscape:connector-curvature="0" /></g><g
           id="g328"
           transform="translate(248.335,594.2587)"
           style="fill:#ffdb00;fill-opacity:1"><path
             d="m 0,0 -4.118,-3.475 c 0,0 0.258,-3.345 1.759,-8.064 1.501,-4.718 3.431,-7.591 3.431,-7.591 0,0 -0.858,4.675 -1.244,9.565 C -0.558,-4.675 0,0 0,0"
             style="fill:#ffdb00;fill-opacity:1;fill-rule:nonzero;stroke:none"
             id="path330"
             inkscape:connector-curvature="0" /></g><g
           id="g332"
           transform="translate(272.0547,574.6136)"
           style="fill:#ffdb00;fill-opacity:1"><path
             d="m 0,0 c -3.366,5.284 -6.838,9.055 -9.437,11.538 -3.598,3.44 -6.643,5.481 -7.506,6.048 -2.14,1.408 -4.071,2.441 -5.576,3.174 -0.062,-0.093 -0.3,-0.245 -0.3,-0.515 0,-0.343 -0.3,-5.576 -0.3,-5.576 0,0 1.565,-0.986 3.431,-2.3 1.328,-0.934 3.128,-2.265 5.233,-4.263 1.372,-1.301 2.348,-2.398 2.96,-3.087 0.722,-0.816 1.649,-1.956 3.474,-4.204 1.296,0.05 2.8,0.022 4.461,-0.172 C -2.242,0.49 -1.049,0.258 0,0"
             style="fill:#ffdb00;fill-opacity:1;fill-rule:nonzero;stroke:none"
             id="path334"
             inkscape:connector-curvature="0" /></g><g
           id="g336"
           transform="translate(281.7485,571.2679)"
           style="fill:#ffdb00;fill-opacity:1"><path
             d="m 0,0 c 0,0 -0.644,1.029 -1.072,1.758 -0.429,0.73 -0.773,1.545 -0.773,1.545 -4.589,2.277 -7.329,5.157 -8.75,6.905 -0.623,0.768 -2.328,2.895 -3.646,5.877 -1.63,3.688 -2.518,6.959 -2.53,6.863 -0.141,-1.118 -0.424,-4.903 -0.3,-5.963 0.041,-0.643 0.129,-1.381 0.3,-2.187 0.157,-0.743 0.354,-1.403 0.558,-1.973 0,0 2.573,-2.617 4.16,-4.761 1.587,-2.145 3.217,-4.976 3.217,-4.976 1.503,-0.426 3.08,-0.922 4.718,-1.501 C -2.666,1.074 -1.292,0.541 0,0"
             style="fill:#ffdb00;fill-opacity:1;fill-rule:nonzero;stroke:none"
             id="path338"
             inkscape:connector-curvature="0" /></g><g
           id="g340"
           transform="translate(289.5122,564.6625)"
           style="fill:#ffdb00;fill-opacity:1"><path
             d="m 0,0 c -1.234,0.4 -2.954,1.143 -4.547,2.616 -1.16,1.073 -1.223,1.581 -2.359,2.531 -1.136,0.95 -2.183,1.37 -5.19,2.359 -3.461,1.139 -5.191,1.708 -6.048,1.888 -3.519,0.738 -6.898,0.666 -8.793,0.514 -1.072,-0.086 -2.23,-0.386 -2.23,-0.386 1.07,-0.143 2.515,-0.376 4.203,-0.772 1.705,-0.4 3.139,-0.736 4.933,-1.501 2.069,-0.882 3.573,-1.889 4.332,-2.402 1.532,-1.036 1.654,-1.34 3.003,-2.188 1.636,-1.029 3.09,-1.609 3.86,-1.887 1.564,-0.565 4.392,-1.551 7.806,-0.986 C -0.591,-0.142 -0.235,-0.06 0,0"
             style="fill:#ffdb00;fill-opacity:1;fill-rule:nonzero;stroke:none"
             id="path342"
             inkscape:connector-curvature="0" /></g><g
           id="g344"
           transform="translate(291.2705,565.1771)"
           style="fill:#ffdb00;fill-opacity:1"><path
             d="m 0,0 c 0.093,0.804 0.142,1.766 0.072,2.845 -0.052,0.791 -0.158,1.506 -0.286,2.131 -3.53,0.747 -5.762,2.119 -7.078,3.345 -3.131,2.917 -5.061,6.22 -5.061,6.22 0.1,-0.591 0.268,-1.426 0.558,-2.402 0.355,-1.2 1.378,-4.245 3.946,-7.378 0.225,-0.276 1.35,-1.632 3.131,-3.045 0.331,-0.263 2.464,-1.931 3.86,-1.802 0.086,0.008 0.916,0.092 0.916,0.092 C 0.058,0.006 0.04,0.004 0,0"
             style="fill:#ffdb00;fill-opacity:1;fill-rule:nonzero;stroke:none"
             id="path346"
             inkscape:connector-curvature="0" /></g><g
           id="g348"
           transform="translate(291.1421,564.5336)"
           style="fill:#ffdb00;fill-opacity:1"><path
             d="m 0,0 c 0,0 -1.587,-0.3 -3.303,-1.544 -1.716,-1.244 -2.359,-1.544 -2.359,-1.544 0,0 -0.046,-0.031 -0.129,-0.086 1.101,-0.3 2.202,-0.6 3.303,-0.901 0.421,0.587 0.878,1.189 1.373,1.802 0.325,0.403 0.65,0.789 0.972,1.158 C -0.095,-0.743 -0.048,-0.372 0,0"
             style="fill:#ffdb00;fill-opacity:1;fill-rule:nonzero;stroke:none"
             id="path350"
             inkscape:connector-curvature="0" /></g><g
           id="g352"
           transform="translate(294.4019,569.2089)"
           style="fill:#ffdb00;fill-opacity:1"><path
             d="m 0,0 -2.659,1.587 c 0,0 0.343,-2.273 0.343,-3.732 0,-1.458 -0.343,-3.903 -0.343,-3.903 L 0,-4.461 Z"
             style="fill:#ffdb00;fill-opacity:1;fill-rule:nonzero;stroke:none"
             id="path354"
             inkscape:connector-curvature="0" /></g><g
           id="g356"
           transform="translate(264.5483,585.2079)"
           style="fill:#ffdb00;fill-opacity:1"><path
             d="m 0,0 c -0.229,0.807 -0.333,1.47 -0.386,1.93 -0.079,0.696 -0.131,1.712 -0.131,1.716 -0.534,0.55 -1.288,1.408 -2.014,2.574 -0.292,0.469 -0.973,1.622 -2.101,5.147 -0.811,2.533 -1.217,3.8 -1.459,5.362 0,0 -0.127,0.821 -0.429,5.447 0,0 -1.93,-2.831 -2.273,-7.764 -0.343,-4.933 0.558,-7.42 0.558,-7.42 C -6.901,6.083 -5.862,5.265 -5.147,4.675 -4.354,4.021 -3.721,3.443 -2.488,2.316 -1.439,1.358 -0.585,0.556 0,0"
             style="fill:#ffdb00;fill-opacity:1;fill-rule:nonzero;stroke:none"
             id="path358"
             inkscape:connector-curvature="0" /></g><g
           id="g360"
           transform="translate(259.4014,641.369)"
           style="fill:#ffdb00;fill-opacity:1"><path
             d="m 0,0 c 0,0 1.086,2.86 1.086,4.976 0,2.116 -1.544,4.918 -1.544,4.918 0,0 -1.029,-1.487 -1.315,-3.946 C -2.059,3.489 -0.629,0 -0.629,0 c 0,0 0.007,-0.008 0.243,-0.271 -0.078,4.593 -0.086,5.083 0.024,5.59 0.013,0.062 0.212,-1.17 0.233,-2.416 0.03,-1.748 -0.2,-3.124 -0.043,-3.153 0.03,-0.005 0.08,0.035 0.172,0.25"
             style="fill:#ffdb00;fill-opacity:1;fill-rule:nonzero;stroke:none"
             id="path362"
             inkscape:connector-curvature="0" /></g><g
           id="g364"
           transform="translate(259.6147,641.2264)"
           style="fill:#ffdb00;fill-opacity:1"><path
             d="m 0,0 c 0,0 2.436,1.703 4.42,2.141 1.984,0.437 4.96,-0.562 4.96,-0.562 0,0 -1.162,-1.361 -3.403,-2.162 -2.241,-0.801 -5.835,-0.061 -5.835,-0.061 0,0 -0.01,0.006 -0.31,0.193 C 4.157,0.419 4.618,0.513 5.069,0.73 5.124,0.756 3.924,0.705 2.75,0.469 1.104,0.138 -0.133,-0.382 -0.196,-0.228 -0.208,-0.198 -0.181,-0.138 0,0"
             style="fill:#ffdb00;fill-opacity:1;fill-rule:nonzero;stroke:none"
             id="path366"
             inkscape:connector-curvature="0" /></g><g
           id="g368"
           transform="translate(262.1357,645.5585)"
           style="fill:#ffdb00;fill-opacity:1"><path
             d="M 0,0 C 0.29,0.303 0.669,0.732 1.062,1.287 1.581,2.019 2.358,3.301 2.82,5.104 3.386,7.312 3.16,9.055 2.906,9.565 2.912,9.557 2.915,9.554 2.917,9.554 2.93,9.561 2.804,9.861 2.542,10.455 2.291,10.248 1.93,9.925 1.544,9.487 0.246,8.013 -0.233,6.473 -0.547,5.426 c 0,0 -0.401,-1.339 -0.525,-3.142 -0.059,-0.854 -10e-4,-1.246 0.053,-1.501 0,0 0.026,-0.12 0.279,-1.04 0,0 1.462,5.447 1.75,5.962 C 1.091,5.851 1.143,5.909 1.171,5.899 1.258,5.87 1.071,5.117 1.01,4.868 0.417,2.48 -0.429,0.064 -0.558,-0.322 -0.571,-0.361 -0.452,-0.341 -0.29,-0.214 -0.193,-0.143 -0.097,-0.072 0,0"
             style="fill:#ffdb00;fill-opacity:1;fill-rule:nonzero;stroke:none"
             id="path370"
             inkscape:connector-curvature="0" /></g><g
           id="g372"
           transform="translate(262.7896,644.1644)"
           style="fill:#ffdb00;fill-opacity:1"><path
             d="m 0,0 c 0.806,-0.196 2.376,-0.455 4.204,0.064 2.378,0.676 3.675,2.338 3.989,2.617 0.386,0.343 0.386,0.6 0.386,0.6 0,0 -2.617,0.558 -4.118,0.344 C 2.96,3.41 1.587,2.596 0.601,1.802 -0.386,1.008 -0.986,0.45 -0.986,0.45 -0.265,0.613 0.312,0.759 0.687,0.858 1.6,1.098 2.064,1.248 3.088,1.501 3.746,1.664 4.649,1.885 4.676,1.802 4.687,1.769 4.548,1.693 4.418,1.63 4.17,1.553 3.798,1.44 3.346,1.308 1.993,0.915 1.316,0.718 0.601,0.579 -0.362,0.392 -0.942,0.368 -0.943,0.257 -0.945,0.154 -0.439,0.062 0,0"
             style="fill:#ffdb00;fill-opacity:1;fill-rule:nonzero;stroke:none"
             id="path374"
             inkscape:connector-curvature="0" /></g><g
           id="g376"
           transform="translate(265.7065,650.4481)"
           style="fill:#ffdb00;fill-opacity:1"><path
             d="M 0,0 C 0,0 1.823,0.515 3.582,3.11 5.34,5.705 5.512,9.651 5.512,9.651 4.688,9.302 2.738,8.344 1.265,6.177 -0.499,3.582 -0.439,0.93 -0.386,0.086 c 0.808,1.4 1.393,2.536 1.78,3.321 0,0 1.076,2.185 1.501,2.191 10e-4,0 0.002,0 0.003,-10e-4 C 3.022,5.521 -0.214,0 -0.214,0 Z"
             style="fill:#ffdb00;fill-opacity:1;fill-rule:nonzero;stroke:none"
             id="path378"
             inkscape:connector-curvature="0" /></g><g
           id="g380"
           transform="translate(264.8701,649.0541)"
           style="fill:#ffdb00;fill-opacity:1"><path
             d="m 0,0 c 0,0 1.565,-0.943 4.804,-0.729 3.238,0.214 5.533,2.209 5.533,2.209 0,0 -0.552,0.38 -1.49,0.71 C 7.012,2.835 5.04,2.595 5.04,2.595 2.892,2.348 1.307,1.339 0.097,0.568 -0.062,0.467 -0.192,0.38 -0.279,0.322 0.425,0.476 1.469,0.687 2.745,0.879 4.721,1.177 6.513,1.316 6.52,1.266 6.524,1.228 5.547,0.936 2.531,0.601 1.373,0.472 -0.236,0.129 -0.236,0.129 Z"
             style="fill:#ffdb00;fill-opacity:1;fill-rule:nonzero;stroke:none"
             id="path382"
             inkscape:connector-curvature="0" /></g><g
           id="g384"
           transform="translate(269.3955,652.2284)"
           style="fill:#ffdb00;fill-opacity:1"><path
             d="m 0,0 c 0.845,0.069 2.879,0.349 4.868,1.844 2.192,1.648 3.007,3.778 3.267,4.569 0,0 -2.86,0.142 -5.319,-2.088 -2.459,-2.231 -2.974,-4.118 -2.974,-4.118 0,0 3.689,3.06 4.147,3.403 C 4.446,3.953 4.561,3.696 4.418,3.582 3.881,3.152 1.156,0.967 0.757,0.636 0.587,0.495 0.343,0.29 0.343,0.29 0.208,0.176 0.091,0.078 0,0"
             style="fill:#ffdb00;fill-opacity:1;fill-rule:nonzero;stroke:none"
             id="path386"
             inkscape:connector-curvature="0" /></g><g
           id="g388"
           transform="translate(294.8867,600.765)"><path
             d="m 0,0 c -0.149,0 -0.229,-0.183 -0.302,-0.708 -0.512,-2.192 -1.036,-3.276 -1.385,-3.799 -0.426,-0.638 -0.416,-0.832 -0.364,-0.937 0.033,-0.066 0.097,-0.109 0.177,-0.109 0.211,0 0.595,0.294 0.708,0.545 0.037,0.079 0.085,0.177 0.145,0.294 0.16,0.306 0.383,0.731 0.584,1.252 0.007,-1.058 0.071,-2.983 0.437,-2.983 0.366,0 0.42,2.062 0.427,2.994 C 0.624,-3.968 0.842,-4.388 1,-4.692 1.064,-4.816 1.117,-4.923 1.156,-5.008 1.275,-5.264 1.66,-5.553 1.875,-5.553 c 0.079,0 0.144,0.043 0.177,0.109 0.052,0.105 0.051,0.299 -0.375,0.937 C 0.953,-3.421 0.476,-1.481 0.302,-0.708 0.219,-0.119 0.123,0 0,0"
             style="fill:#eb222f;fill-opacity:1;fill-rule:nonzero;stroke:none"
             id="path390"
             inkscape:connector-curvature="0" /></g><g
           id="g392"
           transform="translate(300.3613,600.765)"><path
             d="m 0,0 c -0.149,0 -0.229,-0.183 -0.302,-0.708 -0.512,-2.192 -1.036,-3.276 -1.385,-3.799 -0.426,-0.638 -0.416,-0.832 -0.364,-0.937 0.033,-0.066 0.097,-0.109 0.177,-0.109 0.211,0 0.596,0.294 0.708,0.545 0.037,0.079 0.085,0.177 0.145,0.294 0.16,0.306 0.383,0.731 0.584,1.252 0.007,-1.058 0.072,-2.983 0.437,-2.983 0.365,0 0.42,2.062 0.427,2.994 0.196,-0.517 0.415,-0.937 0.573,-1.241 0.064,-0.124 0.117,-0.231 0.156,-0.316 0.119,-0.256 0.503,-0.545 0.718,-0.545 0.08,0 0.145,0.043 0.178,0.109 0.052,0.105 0.051,0.299 -0.375,0.937 C 0.953,-3.421 0.476,-1.481 0.302,-0.708 0.219,-0.119 0.123,0 0,0"
             style="fill:#eb222f;fill-opacity:1;fill-rule:nonzero;stroke:none"
             id="path394"
             inkscape:connector-curvature="0" /></g><path
           inkscape:connector-curvature="0"
           id="path398"
           style="fill:#eb222f;fill-opacity:1;fill-rule:nonzero;stroke:none"
           d="m 298.708,622.8051 c 0,-0.618 -0.5,-1.118 -1.118,-1.118 -0.617,0 -1.118,0.5 -1.118,1.118 0,0.617 0.501,1.118 1.118,1.118 0.618,0 1.118,-0.501 1.118,-1.118" /></g><g
         id="g1120"><path
           inkscape:connector-curvature="0"
           id="path402"
           style="fill:#000096;fill-opacity:1;fill-rule:nonzero;stroke:none"
           d="m 317.1094,659.1927 c 0,-10.776 -8.734,-19.512 -19.51,-19.512 -10.776,0 -19.51,8.736 -19.51,19.512 0,10.775 8.734,19.51 19.51,19.51 10.776,0 19.51,-8.735 19.51,-19.51" /><g
           id="g404"
           transform="translate(304.1279,657.4476)"
           style="fill:#ffffff"><path
             d="m 0,0 4.742,-4.759 -6.496,1.729 1.73,-6.495 -4.759,4.742 -1.745,-6.48 -1.745,6.48 -4.759,-4.742 1.729,6.495 -6.496,-1.729 4.742,4.751 -6.479,1.753 6.479,1.745 -4.742,4.759 6.496,-1.729 -1.729,6.487 4.759,-4.735 1.745,6.479 1.745,-6.479 4.759,4.735 L -1.754,6.52 4.742,8.249 0,3.49 6.479,1.745 Z"
             style="fill:#ffffff;fill-opacity:1;fill-rule:nonzero;stroke:none"
             id="path406"
             inkscape:connector-curvature="0" /></g><g
           id="g408"
           transform="translate(304.9668,659.1927)"
           style="fill:#000096;fill-opacity:1"><path
             d="m 0,0 c 0,-4.07 -3.298,-7.369 -7.367,-7.369 -4.071,0 -7.368,3.299 -7.368,7.369 0,4.069 3.297,7.368 7.368,7.368 C -3.298,7.368 0,4.069 0,0"
             style="fill:#000096;fill-opacity:1;fill-rule:nonzero;stroke:none"
             id="path410"
             inkscape:connector-curvature="0" /></g><g
           id="g412"
           transform="translate(297.5996,665.6967)"
           style="fill:#ffffff"><path
             d="m 0,0 c 3.592,0 6.504,-2.912 6.504,-6.504 0,-3.592 -2.912,-6.504 -6.504,-6.504 -3.592,0 -6.504,2.912 -6.504,6.504 C -6.504,-2.912 -3.592,0 0,0"
             style="fill:#ffffff;fill-opacity:1;fill-rule:nonzero;stroke:none"
             id="path414"
             inkscape:connector-curvature="0" /></g></g></g></g></svg>